# xmcd
#
# Track frame offsets: 
#        150
#        15769
#        36214
#        56302
#        77994
#        96915
#        114381
#        132156
#        150028
#        168224
#        181315
#        196828
#        217302
#
# Disc length: 3163 seconds
#
# Revision: 0
# Processed by: cddbd v1.5.1PL2 Copyright (c) Steve Scherf et al.
# Submitted via: ExactAudioCopy v0.95b4
#
DISCID=990c590d
DTITLE=孫淑媚 - 愛人啊拜拜啦
DYEAR=2002
DGENRE=Pop
TTITLE0=啦啦啦 (經典好戲2002烏來伯與十三姨片尾曲)
TTITLE1=愛人啊 (經典好戲2002烏來伯與十三姨片頭曲)
TTITLE2=拜拜啦 (文學大戲桂花巷片尾曲)
TTITLE3=愛甲心驚 (文學大戲桂花巷片頭曲)
TTITLE4=傷心日期
TTITLE5=愛傷到我
TTITLE6=感情變天
TTITLE7=車站
TTITLE8=愛傷的心
TTITLE9=喃喃自語
TTITLE10=啦啦啦 音樂版
TTITLE11=愛人啊 音樂版
TTITLE12=拜拜啦 音樂版
EXTD=
EXTT0=
EXTT1=
EXTT2=
EXTT3=
EXTT4=
EXTT5=
EXTT6=
EXTT7=
EXTT8=
EXTT9=
EXTT10=
EXTT11=
EXTT12=
PLAYORDER=
